<?xml version="1.0" encoding="UTF-8"?>
<svg id="_레이어_1" data-name="레이어 1" xmlns="http://www.w3.org/2000/svg" viewBox="0 0 1249.77 1151.49">
  <defs>
    <style>
      .cls-1 {
        fill-rule: evenodd;
      }

      .cls-1, .cls-2 {
        fill: #f2f2f2;
      }

      .cls-3 {
        isolation: isolate;
      }
    </style>
  </defs>
  <path class="cls-1" d="M585.32,0c137.62,0,262.21,55.79,352.4,145.99l18.85,20.74-3.88-3.53c-75.09-61.97-171.35-99.2-276.31-99.2-179.93,0-334.31,109.41-400.25,265.33l-11.6,31.67H106.57l2.77-10.79C172.44,147.32,361.68,0,585.32,0Z"/>
  <path class="cls-1" d="M106.57,636h157.96l11.59,31.67c65.95,155.92,220.33,265.33,400.25,265.33,104.96,0,201.23-37.22,276.31-99.2l3.89-3.53-18.85,20.74c-90.19,90.2-214.78,145.98-352.41,145.98-223.63,0-412.87-147.32-475.97-350.21l-2.77-10.79Z"/>
  <path class="cls-1" d="M685.91,104c163.11,0,303.06,99.41,362.84,241.08l5.81,15.92h-126.18l-12.62-26.27c-58.12-107.25-171.48-180.05-301.8-180.05-82.93,0-159,29.48-218.32,78.56l-3.07,2.79,14.89-16.43c71.26-71.43,169.71-115.61,278.45-115.61Z"/>
  <path class="cls-1" d="M928.39,636h126.18l-5.81,15.92c-59.78,141.67-199.73,241.08-362.84,241.08-108.74,0-207.19-44.18-278.45-115.61l-14.9-16.43,3.07,2.8c59.33,49.08,135.39,78.56,218.32,78.56,130.32,0,243.68-72.8,301.8-180.05l12.62-26.27Z"/>
  <g class="cls-3">
    <path class="cls-2" d="M91.58,391.59l-37.28,215.41H3.7l37.43-215.41h50.45Z"/>
    <path class="cls-2" d="M301.37,391.59l-37.43,215.41h-49.12l-51.34-135.96-23.67,135.96h-50.6l37.28-215.41h49.42l51.34,135.96,23.52-135.96h50.6Z"/>
  </g>
  <g class="cls-3">
    <path class="cls-2" d="M407.35,494.85l-6.66,38.61h-86.55l6.66-38.61h86.55Z"/>
  </g>
  <g class="cls-3">
    <path class="cls-2" d="M628.93,391.59l-6.95,40.09h-175.02l7.1-40.09h174.88ZM566.05,391.59l-37.28,215.41h-50.75l37.43-215.41h50.6Z"/>
    <path class="cls-2" d="M700.68,391.59l-37.43,215.41h-50.6l37.28-215.41h50.75ZM763.71,567.05l-6.95,39.95h-111.7l6.95-39.95h111.7ZM764.89,477.1l-6.66,38.61h-97.35l6.81-38.61h97.2ZM794.48,391.59l-6.95,40.09h-112.15l7.1-40.09h112Z"/>
    <path class="cls-2" d="M907.52,534.21l49.56-.59c-1.38,16.37-6.63,30.31-15.76,41.8-9.12,11.49-20.62,20.19-34.47,26.11-13.86,5.92-28.63,8.73-44.31,8.43-14.89-.3-27.42-3.38-37.58-9.25-10.16-5.87-18.15-13.76-23.97-23.67-5.82-9.91-9.67-21.06-11.54-33.44-1.88-12.38-1.97-25.17-.3-38.39l1.63-11.69c1.97-13.71,5.62-26.9,10.95-39.58,5.33-12.67,12.3-23.99,20.94-33.95,8.63-9.96,18.91-17.78,30.85-23.45,11.93-5.67,25.45-8.36,40.54-8.06,16.08.3,29.76,3.65,41.06,10.06,11.29,6.41,20.07,15.39,26.33,26.93,6.26,11.54,9.79,25.15,10.58,40.83l-50.45-.15c.3-7.59-.44-14.1-2.22-19.53-1.78-5.42-4.91-9.64-9.39-12.65-4.49-3.01-10.78-4.66-18.86-4.96-8.78-.3-16.1,1.5-21.97,5.4-5.87,3.9-10.63,9.1-14.28,15.61-3.65,6.51-6.44,13.56-8.36,21.16-1.92,7.6-3.38,14.94-4.36,22.04l-1.48,12.13c-.69,5.82-1.33,12.35-1.92,19.6-.59,7.25-.35,14.2.74,20.86,1.08,6.66,3.6,12.21,7.54,16.64,3.94,4.44,10.11,6.81,18.49,7.1,7.89.2,14.74-1.06,20.56-3.77,5.82-2.71,10.53-6.75,14.13-12.13,3.6-5.37,6.04-11.86,7.32-19.46Z"/>
    <path class="cls-2" d="M1058.13,391.59l-37.43,215.41h-50.6l37.28-215.41h50.75ZM1133.73,477.1l-6.95,39.95h-107.56l6.95-39.95h107.56ZM1182.41,391.59l-37.43,215.41h-50.45l37.28-215.41h50.6Z"/>
  </g>
  <g class="cls-3">
    <path class="cls-2" d="M72,1069.99v59.01h-14.18v-59.01h14.18Z"/>
    <path class="cls-2" d="M131.25,1069.99v59.01h-14.18l-20.87-36.72v36.72h-14.23v-59.01h14.23l20.87,36.72v-36.72h14.18Z"/>
  </g>
  <g class="cls-3">
    <path class="cls-2" d="M165.98,1098.28v10.58h-24.36v-10.58h24.36Z"/>
  </g>
  <g class="cls-3">
    <path class="cls-2" d="M201.27,1103.91h-15.2l-.08-9.32h12.32c2.21,0,3.98-.25,5.31-.75,1.32-.5,2.29-1.24,2.9-2.21.61-.97.91-2.19.91-3.65,0-1.67-.31-3.03-.93-4.05-.62-1.03-1.6-1.78-2.94-2.25-1.34-.47-3.06-.71-5.17-.71h-6.97v48.03h-14.23v-59.01h21.2c3.65,0,6.9.33,9.77.99,2.86.66,5.3,1.67,7.31,3.02,2.01,1.35,3.55,3.05,4.6,5.09s1.58,4.44,1.58,7.19c0,2.41-.51,4.66-1.54,6.77-1.03,2.11-2.74,3.82-5.13,5.13-2.39,1.31-5.65,1.99-9.79,2.05l-3.93,3.69ZM200.7,1129h-18.08l4.86-10.94h13.21c1.95,0,3.51-.3,4.68-.91,1.17-.61,2.03-1.42,2.55-2.43.53-1.01.79-2.14.79-3.38,0-1.51-.25-2.82-.75-3.93-.5-1.11-1.29-1.96-2.37-2.57-1.08-.61-2.53-.91-4.34-.91h-11.96l.08-9.32h14.31l3.32,3.73c3.94-.16,7.07.39,9.38,1.66,2.31,1.27,3.96,2.95,4.96,5.03,1,2.08,1.5,4.26,1.5,6.53,0,3.86-.83,7.09-2.49,9.69-1.66,2.59-4.14,4.54-7.44,5.84-3.3,1.3-7.38,1.95-12.24,1.95Z"/>
    <path class="cls-2" d="M257.04,1109.43l3.57-.08c0,2.95-.35,5.67-1.05,8.17-.7,2.5-1.74,4.67-3.1,6.5-1.36,1.84-3.04,3.26-5.03,4.28-1.99,1.01-4.28,1.52-6.87,1.52-2.16,0-4.14-.3-5.94-.91-1.8-.61-3.34-1.57-4.64-2.88s-2.3-3-3.02-5.07c-.72-2.07-1.07-4.54-1.07-7.44v-28.37h13.66v28.45c0,.97.12,1.81.36,2.51.24.7.59,1.29,1.05,1.76.46.47,1.03.83,1.72,1.05.69.23,1.48.34,2.37.34,2.05,0,3.66-.43,4.82-1.3,1.16-.86,1.98-2.04,2.45-3.53.47-1.49.71-3.16.71-5.03ZM255.74,1118.34v-33.19h13.7v43.85h-12.81l-.89-10.66Z"/>
    <path class="cls-2" d="M275.27,1107.6v-.85c0-3.32.36-6.36,1.09-9.1s1.81-5.11,3.24-7.09c1.43-1.99,3.21-3.52,5.35-4.6,2.13-1.08,4.59-1.62,7.38-1.62,2.49,0,4.66.57,6.52,1.72s3.46,2.75,4.78,4.8c1.32,2.05,2.4,4.45,3.24,7.19.84,2.74,1.47,5.69,1.9,8.85v1.01c-.43,2.97-1.07,5.78-1.9,8.41-.84,2.63-1.92,4.96-3.24,6.99-1.32,2.03-2.92,3.61-4.8,4.76-1.88,1.15-4.07,1.72-6.59,1.72-2.78,0-5.23-.55-7.36-1.66-2.12-1.11-3.89-2.66-5.31-4.66-1.42-2-2.49-4.35-3.22-7.05-.73-2.7-1.09-5.65-1.09-8.83ZM288.93,1106.75v.85c0,1.65.11,3.17.32,4.58.22,1.4.59,2.64,1.11,3.71.53,1.07,1.23,1.9,2.11,2.49.88.59,1.97.89,3.26.89,1.76,0,3.21-.42,4.36-1.26,1.15-.84,2-2.03,2.55-3.57.55-1.54.79-3.35.71-5.43v-3.2c.05-1.78-.07-3.36-.36-4.72-.3-1.36-.76-2.51-1.4-3.42-.64-.92-1.43-1.61-2.39-2.09-.96-.47-2.09-.71-3.38-.71s-2.34.3-3.22.89c-.88.59-1.59,1.43-2.13,2.49-.54,1.07-.93,2.32-1.18,3.77s-.36,3.02-.36,4.72ZM302.18,1118.95v-52.2h13.74v62.25h-12.32l-1.42-10.05Z"/>
    <path class="cls-2" d="M322.08,1107.6v-.85c0-3.32.41-6.36,1.24-9.1.82-2.74,2.01-5.11,3.57-7.09,1.55-1.99,3.44-3.52,5.65-4.6,2.21-1.08,4.71-1.62,7.5-1.62,3,0,5.46.57,7.4,1.72s3.49,2.75,4.66,4.8c1.17,2.05,2.09,4.45,2.76,7.19.66,2.74,1.22,5.69,1.68,8.85v1.01c-.46,2.97-1.09,5.78-1.88,8.41-.8,2.63-1.83,4.96-3.1,6.99-1.27,2.03-2.86,3.61-4.76,4.76-1.9,1.15-4.18,1.72-6.83,1.72s-5.23-.55-7.44-1.66c-2.2-1.11-4.08-2.66-5.63-4.66-1.55-2-2.74-4.35-3.57-7.05-.82-2.7-1.24-5.65-1.24-8.83ZM351.22,1085.15h12.4v42.15c0,4.05-.93,7.49-2.8,10.31-1.86,2.82-4.46,4.97-7.8,6.44s-7.23,2.21-11.69,2.21c-1.97,0-3.99-.25-6.04-.75-2.05-.5-3.97-1.24-5.75-2.21s-3.28-2.18-4.5-3.61l5.71-8.02c1.11,1.24,2.5,2.3,4.17,3.18,1.67.88,3.65,1.32,5.92,1.32,1.97,0,3.63-.35,4.96-1.05,1.34-.7,2.36-1.72,3.06-3.06.7-1.34,1.05-2.95,1.05-4.84v-31.69l1.3-10.38ZM335.74,1106.75v.85c0,1.65.16,3.17.47,4.58.31,1.4.79,2.64,1.44,3.71s1.45,1.9,2.41,2.49c.96.59,2.09.89,3.38.89,1.97,0,3.57-.42,4.78-1.26,1.22-.84,2.09-2.03,2.63-3.57.54-1.54.77-3.35.69-5.43v-3.2c.05-1.78-.07-3.36-.36-4.72-.3-1.36-.76-2.51-1.4-3.42-.63-.92-1.47-1.61-2.51-2.09-1.04-.47-2.29-.71-3.75-.71-1.27,0-2.39.3-3.36.89-.97.59-1.78,1.43-2.43,2.49-.65,1.07-1.14,2.32-1.48,3.77s-.51,3.02-.51,4.72Z"/>
    <path class="cls-2" d="M392.68,1129.81c-3.57,0-6.75-.56-9.56-1.68-2.81-1.12-5.18-2.67-7.11-4.64-1.93-1.97-3.4-4.24-4.42-6.81-1.01-2.57-1.52-5.28-1.52-8.15v-1.54c0-3.22.45-6.19,1.34-8.94s2.21-5.14,3.97-7.19c1.76-2.05,3.96-3.65,6.61-4.8,2.65-1.15,5.73-1.72,9.24-1.72,3.11,0,5.89.5,8.35,1.5,2.46,1,4.55,2.43,6.26,4.3,1.72,1.86,3.03,4.12,3.93,6.77.9,2.65,1.36,5.62,1.36,8.92v5.55h-35.83v-8.55h22.49v-1.05c.03-1.46-.22-2.7-.75-3.73-.53-1.03-1.29-1.81-2.29-2.35-1-.54-2.22-.81-3.65-.81s-2.71.32-3.67.97-1.7,1.53-2.23,2.65c-.53,1.12-.9,2.41-1.11,3.87-.22,1.46-.32,3-.32,4.62v1.54c0,1.62.22,3.09.67,4.42.45,1.32,1.09,2.45,1.95,3.38.85.93,1.88,1.66,3.08,2.17,1.2.51,2.57.77,4.11.77,1.86,0,3.7-.35,5.51-1.05,1.81-.7,3.36-1.86,4.66-3.49l6.2,7.38c-.89,1.27-2.15,2.5-3.79,3.69-1.63,1.19-3.59,2.15-5.86,2.9-2.27.74-4.81,1.11-7.62,1.11Z"/>
    <path class="cls-2" d="M439.77,1085.15v9.48h-26.42v-9.48h26.42ZM418.9,1074.25h13.66v40.45c0,1.16.13,2.06.41,2.7.27.64.74,1.08,1.4,1.34s1.55.38,2.65.38c.78,0,1.43-.02,1.95-.06.51-.04,1-.1,1.46-.18v9.77c-1.16.38-2.38.67-3.65.87-1.27.2-2.62.3-4.05.3-2.92,0-5.41-.46-7.48-1.38-2.07-.92-3.64-2.36-4.72-4.34-1.08-1.97-1.62-4.54-1.62-7.7v-42.15Z"/>
    <path class="cls-2" d="M481.64,1069.99v59.01h-14.18v-59.01h14.18Z"/>
    <path class="cls-2" d="M540.89,1069.99v59.01h-14.18l-20.87-36.72v36.72h-14.23v-59.01h14.23l20.87,36.72v-36.72h14.18Z"/>
  </g>
  <g class="cls-3">
    <path class="cls-2" d="M573.89,1098.28v10.58h-24.36v-10.58h24.36Z"/>
  </g>
  <g class="cls-3">
    <path class="cls-2" d="M631.43,1069.99v10.98h-49.32v-10.98h49.32ZM613.68,1069.99v59.01h-14.23v-59.01h14.23Z"/>
    <path class="cls-2" d="M636.74,1073.84c0-1.95.7-3.54,2.11-4.78,1.4-1.24,3.23-1.87,5.47-1.87s4.07.62,5.47,1.87c1.4,1.24,2.11,2.84,2.11,4.78s-.7,3.54-2.11,4.78c-1.41,1.24-3.23,1.86-5.47,1.86s-4.07-.62-5.47-1.86c-1.4-1.24-2.11-2.84-2.11-4.78ZM651.25,1085.15v43.85h-13.7v-43.85h13.7Z"/>
    <path class="cls-2" d="M673.42,1094.43v34.57h-13.66v-43.85h12.81l.85,9.28ZM671.76,1105.58l-3.12.08c0-3.08.36-5.92,1.09-8.51.73-2.59,1.81-4.85,3.24-6.77,1.43-1.92,3.19-3.4,5.29-4.46,2.09-1.05,4.52-1.58,7.27-1.58,1.92,0,3.66.29,5.23.87,1.57.58,2.92,1.49,4.05,2.72s2.01,2.82,2.61,4.78c.61,1.96.91,4.3.91,7.03v29.26h-13.66v-27.52c0-1.87-.21-3.27-.63-4.21-.42-.95-1.02-1.58-1.8-1.91-.78-.32-1.74-.49-2.88-.49s-2.26.27-3.2.81c-.95.54-1.75,1.29-2.41,2.25-.66.96-1.16,2.09-1.5,3.38-.34,1.3-.51,2.71-.51,4.25ZM696.8,1105.58l-3.81.08c0-3.08.35-5.92,1.03-8.51.69-2.59,1.73-4.85,3.12-6.77,1.39-1.92,3.13-3.4,5.21-4.46,2.08-1.05,4.5-1.58,7.25-1.58,2,0,3.84.3,5.51.89,1.67.59,3.12,1.55,4.34,2.88,1.22,1.32,2.16,3.07,2.84,5.25.67,2.17,1.01,4.86,1.01,8.04v27.6h-13.7v-27.6c0-1.81-.21-3.18-.63-4.11-.42-.93-1.02-1.57-1.8-1.9-.79-.34-1.72-.51-2.8-.51-1.3,0-2.42.27-3.36.81-.95.54-1.74,1.29-2.37,2.25-.63.96-1.1,2.09-1.4,3.38-.3,1.3-.45,2.71-.45,4.25Z"/>
    <path class="cls-2" d="M752.36,1129.81c-3.57,0-6.75-.56-9.56-1.68-2.81-1.12-5.18-2.67-7.11-4.64-1.93-1.97-3.4-4.24-4.42-6.81-1.01-2.57-1.52-5.28-1.52-8.15v-1.54c0-3.22.45-6.19,1.34-8.94.89-2.74,2.21-5.14,3.97-7.19,1.76-2.05,3.96-3.65,6.61-4.8,2.65-1.15,5.73-1.72,9.24-1.72,3.11,0,5.89.5,8.35,1.5,2.46,1,4.55,2.43,6.26,4.3,1.72,1.86,3.03,4.12,3.93,6.77.91,2.65,1.36,5.62,1.36,8.92v5.55h-35.83v-8.55h22.49v-1.05c.03-1.46-.22-2.7-.75-3.73-.53-1.03-1.29-1.81-2.29-2.35-1-.54-2.21-.81-3.65-.81s-2.71.32-3.67.97-1.7,1.53-2.23,2.65c-.53,1.12-.9,2.41-1.12,3.87-.22,1.46-.32,3-.32,4.62v1.54c0,1.62.22,3.09.67,4.42.45,1.32,1.1,2.45,1.95,3.38.85.93,1.88,1.66,3.08,2.17,1.2.51,2.57.77,4.11.77,1.86,0,3.7-.35,5.51-1.05,1.81-.7,3.36-1.86,4.66-3.49l6.2,7.38c-.89,1.27-2.16,2.5-3.79,3.69-1.63,1.19-3.59,2.15-5.86,2.9-2.27.74-4.81,1.11-7.62,1.11Z"/>
    <path class="cls-2" d="M812.79,1069.99v59.01h-14.18v-59.01h14.18Z"/>
    <path class="cls-2" d="M872.04,1069.99v59.01h-14.19l-20.87-36.72v36.72h-14.22v-59.01h14.22l20.87,36.72v-36.72h14.19Z"/>
  </g>
  <g class="cls-3">
    <path class="cls-2" d="M905.61,1098.28v10.58h-24.36v-10.58h24.36Z"/>
  </g>
  <g class="cls-3">
    <path class="cls-2" d="M947.22,1113.32c0-.92-.14-1.75-.41-2.49-.27-.74-.77-1.44-1.5-2.09s-1.78-1.3-3.14-1.97c-1.36-.66-3.16-1.36-5.37-2.09-2.59-.86-5.09-1.84-7.5-2.94-2.41-1.09-4.55-2.38-6.44-3.85-1.89-1.47-3.39-3.2-4.5-5.19-1.11-1.99-1.66-4.3-1.66-6.95s.57-4.83,1.7-6.87c1.13-2.04,2.72-3.78,4.76-5.23s4.44-2.55,7.19-3.32c2.76-.77,5.77-1.16,9.04-1.16,4.32,0,8.14.75,11.45,2.25,3.31,1.5,5.9,3.62,7.78,6.36s2.82,5.98,2.82,9.71h-14.14c0-1.49-.3-2.8-.91-3.93-.61-1.13-1.52-2.03-2.74-2.67s-2.74-.97-4.58-.97-3.28.27-4.5.81c-1.22.54-2.13,1.26-2.76,2.17-.62.91-.93,1.9-.93,2.98,0,.89.25,1.7.75,2.41.5.72,1.22,1.38,2.15,2.01.93.62,2.07,1.21,3.4,1.78,1.34.57,2.84,1.12,4.52,1.66,3.13,1,5.92,2.11,8.37,3.34s4.51,2.62,6.2,4.17c1.69,1.55,2.97,3.32,3.85,5.29.88,1.97,1.32,4.2,1.32,6.69,0,2.65-.51,5-1.54,7.05-1.03,2.05-2.5,3.79-4.42,5.21-1.92,1.42-4.21,2.49-6.89,3.22-2.67.73-5.66,1.09-8.96,1.09-3.03,0-6-.38-8.94-1.16-2.93-.77-5.59-1.96-7.96-3.57-2.38-1.61-4.28-3.67-5.69-6.2-1.42-2.53-2.13-5.53-2.13-9.02h14.27c0,1.73.23,3.19.69,4.38.46,1.19,1.13,2.14,2.03,2.86s1.99,1.23,3.28,1.54,2.78.47,4.46.47c1.81,0,3.27-.26,4.38-.79,1.11-.53,1.92-1.23,2.43-2.11.51-.88.77-1.84.77-2.9Z"/>
    <path class="cls-2" d="M981.92,1093.58v52.28h-13.66v-60.71h12.73l.93,8.43ZM1008.83,1106.55v.85c0,3.19-.37,6.15-1.09,8.88-.73,2.73-1.81,5.11-3.24,7.13-1.43,2.03-3.21,3.6-5.33,4.72-2.12,1.12-4.57,1.68-7.36,1.68-2.62,0-4.88-.58-6.77-1.74-1.89-1.16-3.47-2.77-4.74-4.82-1.27-2.05-2.3-4.4-3.08-7.05-.78-2.65-1.41-5.44-1.86-8.39v-1.09c.46-3.16,1.08-6.1,1.86-8.81.78-2.72,1.81-5.09,3.08-7.11,1.27-2.03,2.84-3.61,4.72-4.74s4.13-1.7,6.75-1.7c2.78,0,5.23.53,7.36,1.58,2.12,1.05,3.9,2.56,5.35,4.52s2.53,4.3,3.26,7.03c.73,2.73,1.09,5.75,1.09,9.08ZM995.17,1107.4v-.85c0-1.7-.12-3.26-.36-4.68-.24-1.42-.63-2.65-1.16-3.71-.53-1.05-1.22-1.86-2.09-2.43-.87-.57-1.93-.85-3.2-.85-1.46,0-2.68.22-3.67.67-.99.45-1.77,1.12-2.35,2.03s-.99,2.03-1.22,3.36c-.23,1.34-.33,2.9-.3,4.68v3.32c-.05,2.05.15,3.86.61,5.41.46,1.55,1.26,2.76,2.39,3.63,1.13.87,2.67,1.3,4.62,1.3,1.3,0,2.38-.3,3.24-.91.86-.61,1.55-1.46,2.07-2.55.51-1.09.88-2.36,1.09-3.79.22-1.43.32-2.97.32-4.62Z"/>
    <path class="cls-2" d="M1036.1,1129.81c-3.57,0-6.75-.56-9.56-1.68-2.81-1.12-5.18-2.67-7.11-4.64-1.93-1.97-3.4-4.24-4.42-6.81-1.01-2.57-1.52-5.28-1.52-8.15v-1.54c0-3.22.45-6.19,1.34-8.94s2.21-5.14,3.97-7.19c1.76-2.05,3.96-3.65,6.61-4.8,2.65-1.15,5.73-1.72,9.24-1.72,3.11,0,5.89.5,8.35,1.5,2.46,1,4.55,2.43,6.26,4.3,1.72,1.86,3.03,4.12,3.93,6.77.9,2.65,1.36,5.62,1.36,8.92v5.55h-35.83v-8.55h22.49v-1.05c.03-1.46-.22-2.7-.75-3.73-.53-1.03-1.29-1.81-2.29-2.35-1-.54-2.22-.81-3.65-.81s-2.71.32-3.67.97-1.7,1.53-2.23,2.65c-.53,1.12-.9,2.41-1.12,3.87-.22,1.46-.32,3-.32,4.62v1.54c0,1.62.22,3.09.67,4.42.45,1.32,1.09,2.45,1.95,3.38.85.93,1.88,1.66,3.08,2.17,1.2.51,2.57.77,4.11.77,1.86,0,3.7-.35,5.51-1.05,1.81-.7,3.36-1.86,4.66-3.49l6.2,7.38c-.89,1.27-2.15,2.5-3.79,3.69-1.63,1.19-3.59,2.15-5.86,2.9-2.27.74-4.81,1.11-7.62,1.11Z"/>
    <path class="cls-2" d="M1078.61,1119.27c1.27,0,2.36-.24,3.26-.71.9-.47,1.59-1.15,2.07-2.03s.7-1.94.67-3.18h12.85c.03,3.3-.78,6.18-2.41,8.65-1.63,2.47-3.85,4.39-6.65,5.75-2.8,1.36-5.95,2.05-9.46,2.05s-6.43-.56-9-1.68c-2.57-1.12-4.71-2.69-6.42-4.7s-3-4.37-3.85-7.07c-.85-2.7-1.28-5.63-1.28-8.79v-.93c0-3.16.43-6.1,1.28-8.81.85-2.72,2.13-5.08,3.85-7.09,1.72-2.01,3.85-3.58,6.4-4.7,2.55-1.12,5.53-1.68,8.94-1.68,3.65,0,6.87.69,9.67,2.07,2.8,1.38,4.99,3.38,6.58,6,1.59,2.62,2.38,5.79,2.35,9.52h-12.85c.03-1.32-.18-2.51-.61-3.57-.43-1.05-1.1-1.9-2.01-2.53-.91-.63-2.06-.95-3.46-.95s-2.54.31-3.4.93c-.87.62-1.52,1.48-1.97,2.57-.45,1.09-.74,2.34-.89,3.75-.15,1.4-.22,2.9-.22,4.5v.93c0,1.62.07,3.14.22,4.56.15,1.42.45,2.66.91,3.73.46,1.07,1.12,1.91,1.99,2.51.86.61,2.01.91,3.45.91Z"/>
    <path class="cls-2" d="M1104.15,1122.6c0-1.95.7-3.57,2.11-4.88,1.4-1.31,3.21-1.96,5.43-1.96s4.06.66,5.45,1.96c1.39,1.31,2.09,2.94,2.09,4.88s-.7,3.57-2.09,4.88-3.21,1.96-5.45,1.96-4.03-.65-5.43-1.96c-1.41-1.31-2.11-2.94-2.11-4.88Z"/>
  </g>
</svg>